<svg width="27" height="27" viewBox="0 0 27 27" fill="none" xmlns="http://www.w3.org/2000/svg">
<circle cx="13.5" cy="13.5" r="13.5" fill="#677489"/>
<path d="M11 17.6C10.7 17.6 10.5 17.5 10.3 17.3C9.9 16.9 9.9 16.3 10.3 15.9L15.9 10.3C16.3 9.9 16.9 9.9 17.3 10.3C17.7 10.7 17.7 11.3 17.3 11.7L11.7 17.3C11.5 17.5 11.3 17.6 11 17.6Z" fill="#464F5E"/>
<path d="M16.6 17.6C16.3 17.6 16.1 17.5 15.9 17.3L10.3 11.7C9.9 11.3 9.9 10.7 10.3 10.3C10.7 9.9 11.3 9.9 11.7 10.3L17.3 15.9C17.7 16.3 17.7 16.9 17.3 17.3C17.1 17.5 16.9 17.6 16.6 17.6Z" fill="#464F5E"/>
</svg>
